# xmcd
#
# Track frame offsets:
# 150
# 19243
# 42405
# 64692
# 85357
# 108631
# 129078
# 149485
# 170954
# 192878
# 214016
# 230813
#
# Disc length: 3490 seconds
#
# Revision: 0
# Processed by: cddbd v1.5.1PL2 Copyright (c) Steve Scherf et al.
# Submitted via: Audion 3.0.2 (http://www.panic.com/audion/)
#
DISCID=b40da00c
DTITLE=Sara Church - Against All Odds
DYEAR=1900
DGENRE=
TTITLE0=These Walls
TTITLE1=Cool Water
TTITLE2=The Calling
TTITLE3=One Day
TTITLE4=Everything's Global
TTITLE5=Why
TTITLE6=Condition Soul
TTITLE7=Wrong When It's Right
TTITLE8=Give Me Love
TTITLE9=Woman Alone
TTITLE10=More Than I Can Say
TTITLE11=Mother Earth
EXTD=
EXTT0=
EXTT1=
EXTT2=
EXTT3=
EXTT4=
EXTT5=
EXTT6=
EXTT7=
EXTT8=
EXTT9=
EXTT10=
EXTT11=
PLAYORDER=
